<svg width="364" height="230" viewBox="0 0 364 230" fill="none" xmlns="http://www.w3.org/2000/svg">
<g filter="url(#filter0_d_770_2032)">
<rect width="360" height="226" rx="24" fill="url(#paint0_linear_770_2032)" shape-rendering="crispEdges"/>
<path d="M57.4548 83.32C55.8121 83.32 54.2868 83.032 52.8788 82.456C51.4708 81.8587 50.2334 81.0373 49.1668 79.992C48.1214 78.9253 47.3108 77.688 46.7348 76.28C46.1801 74.872 45.9028 73.3573 45.9028 71.736C45.9028 70.1147 46.1801 68.6 46.7348 67.192C47.3108 65.784 48.1214 64.5573 49.1668 63.512C50.2334 62.4667 51.4601 61.6453 52.8468 61.048C54.2548 60.4507 55.7908 60.152 57.4548 60.152C59.2468 60.152 60.8254 60.4507 62.1908 61.048C63.5561 61.624 64.7614 62.424 65.8068 63.448L62.8628 66.392C62.2441 65.7093 61.4868 65.176 60.5908 64.792C59.6948 64.408 58.6494 64.216 57.4548 64.216C56.4094 64.216 55.4494 64.3973 54.5748 64.76C53.7214 65.1013 52.9748 65.6133 52.3348 66.296C51.6948 66.9573 51.2041 67.7573 50.8628 68.696C50.5214 69.6133 50.3508 70.6267 50.3508 71.736C50.3508 72.8667 50.5214 73.8907 50.8628 74.808C51.2041 75.7253 51.6948 76.5253 52.3348 77.208C52.9748 77.8693 53.7214 78.3813 54.5748 78.744C55.4494 79.1067 56.4094 79.288 57.4548 79.288C58.7134 79.288 59.7908 79.096 60.6868 78.712C61.6041 78.328 62.3721 77.784 62.9908 77.08L65.9348 80.024C64.8894 81.0693 63.6734 81.88 62.2868 82.456C60.9001 83.032 59.2894 83.32 57.4548 83.32ZM75.37 83.32C73.8127 83.32 72.4047 82.968 71.146 82.264C69.9087 81.5387 68.9167 80.568 68.17 79.352C67.4447 78.1147 67.082 76.7387 67.082 75.224C67.082 73.7093 67.4447 72.3547 68.17 71.16C68.8953 69.944 69.8873 68.984 71.146 68.28C72.4047 67.5547 73.802 67.192 75.338 67.192C76.9167 67.192 78.3247 67.5547 79.562 68.28C80.8207 68.984 81.8127 69.944 82.538 71.16C83.2633 72.3547 83.626 73.7093 83.626 75.224C83.626 76.7387 83.2633 78.1147 82.538 79.352C81.8127 80.568 80.8207 81.5387 79.562 82.264C78.3247 82.968 76.9273 83.32 75.37 83.32ZM75.338 79.416C76.1273 79.416 76.8207 79.2453 77.418 78.904C78.0367 78.5413 78.506 78.0507 78.826 77.432C79.1673 76.792 79.338 76.0667 79.338 75.256C79.338 74.4453 79.1673 73.7307 78.826 73.112C78.4847 72.4933 78.0153 72.0133 77.418 71.672C76.8207 71.3093 76.1273 71.128 75.338 71.128C74.57 71.128 73.8873 71.3093 73.29 71.672C72.6927 72.0133 72.2233 72.4933 71.882 73.112C71.5407 73.7307 71.37 74.4453 71.37 75.256C71.37 76.0667 71.5407 76.792 71.882 77.432C72.2233 78.0507 72.6927 78.5413 73.29 78.904C73.8873 79.2453 74.57 79.416 75.338 79.416ZM86.3248 83V67.544H90.5168V83H86.3248ZM96.4048 83V73.88C96.4048 72.984 96.1168 72.2907 95.5408 71.8C94.9861 71.288 94.2928 71.032 93.4608 71.032C92.9061 71.032 92.4048 71.1493 91.9568 71.384C91.5088 71.5973 91.1568 71.9173 90.9008 72.344C90.6448 72.7707 90.5168 73.2827 90.5168 73.88L88.8848 73.08C88.8848 71.8853 89.1408 70.8507 89.6528 69.976C90.1861 69.1013 90.9008 68.4293 91.7968 67.96C92.6928 67.4693 93.7061 67.224 94.8368 67.224C95.9034 67.224 96.8741 67.4693 97.7488 67.96C98.6234 68.4293 99.3168 69.1013 99.8288 69.976C100.341 70.8293 100.597 71.864 100.597 73.08V83H96.4048ZM106.485 83V73.88C106.485 72.984 106.197 72.2907 105.621 71.8C105.066 71.288 104.373 71.032 103.541 71.032C103.007 71.032 102.506 71.1493 102.037 71.384C101.589 71.5973 101.237 71.9173 100.981 72.344C100.725 72.7707 100.597 73.2827 100.597 73.88L98.1968 73.304C98.2821 72.0667 98.6128 71 99.1888 70.104C99.7648 69.1867 100.522 68.4827 101.461 67.992C102.399 67.48 103.445 67.224 104.597 67.224C105.749 67.224 106.783 67.4693 107.701 67.96C108.618 68.4293 109.343 69.112 109.877 70.008C110.41 70.904 110.677 71.9707 110.677 73.208V83H106.485ZM114.075 83V67.544H118.267V83H114.075ZM124.155 83V73.88C124.155 72.984 123.867 72.2907 123.291 71.8C122.736 71.288 122.043 71.032 121.211 71.032C120.656 71.032 120.155 71.1493 119.707 71.384C119.259 71.5973 118.907 71.9173 118.651 72.344C118.395 72.7707 118.267 73.2827 118.267 73.88L116.635 73.08C116.635 71.8853 116.891 70.8507 117.403 69.976C117.936 69.1013 118.651 68.4293 119.547 67.96C120.443 67.4693 121.456 67.224 122.587 67.224C123.653 67.224 124.624 67.4693 125.499 67.96C126.373 68.4293 127.067 69.1013 127.579 69.976C128.091 70.8293 128.347 71.864 128.347 73.08V83H124.155ZM134.235 83V73.88C134.235 72.984 133.947 72.2907 133.371 71.8C132.816 71.288 132.123 71.032 131.291 71.032C130.757 71.032 130.256 71.1493 129.787 71.384C129.339 71.5973 128.987 71.9173 128.731 72.344C128.475 72.7707 128.347 73.2827 128.347 73.88L125.947 73.304C126.032 72.0667 126.363 71 126.939 70.104C127.515 69.1867 128.272 68.4827 129.211 67.992C130.149 67.48 131.195 67.224 132.347 67.224C133.499 67.224 134.533 67.4693 135.451 67.96C136.368 68.4293 137.093 69.112 137.627 70.008C138.16 70.904 138.427 71.9707 138.427 73.208V83H134.235ZM148.417 83.32C147.051 83.32 145.835 83.032 144.769 82.456C143.723 81.88 142.902 81.08 142.305 80.056C141.707 79.032 141.409 77.848 141.409 76.504V67.544H145.633V76.408C145.633 77.048 145.739 77.6027 145.953 78.072C146.166 78.52 146.486 78.8613 146.913 79.096C147.339 79.3307 147.841 79.448 148.417 79.448C149.291 79.448 149.974 79.1813 150.465 78.648C150.955 78.1147 151.201 77.368 151.201 76.408V67.544H155.393V76.504C155.393 77.8693 155.094 79.064 154.497 80.088C153.921 81.112 153.099 81.912 152.033 82.488C150.987 83.0427 149.782 83.32 148.417 83.32ZM169.131 83V74.136C169.131 73.2187 168.843 72.472 168.267 71.896C167.691 71.32 166.944 71.032 166.027 71.032C165.43 71.032 164.896 71.16 164.427 71.416C163.958 71.672 163.584 72.0347 163.307 72.504C163.051 72.9733 162.923 73.5173 162.923 74.136L161.291 73.304C161.291 72.088 161.547 71.032 162.059 70.136C162.592 69.2187 163.318 68.504 164.235 67.992C165.174 67.48 166.23 67.224 167.403 67.224C168.534 67.224 169.547 67.512 170.443 68.088C171.339 68.6427 172.043 69.3787 172.555 70.296C173.067 71.192 173.323 72.1627 173.323 73.208V83H169.131ZM158.731 83V67.544H162.923V83H158.731ZM176.7 83V67.544H180.924V83H176.7ZM178.812 65.048C178.129 65.048 177.564 64.824 177.116 64.376C176.668 63.9067 176.444 63.3307 176.444 62.648C176.444 61.9867 176.668 61.4213 177.116 60.952C177.564 60.4827 178.129 60.248 178.812 60.248C179.516 60.248 180.081 60.4827 180.508 60.952C180.956 61.4213 181.18 61.9867 181.18 62.648C181.18 63.3307 180.956 63.9067 180.508 64.376C180.081 64.824 179.516 65.048 178.812 65.048ZM186.909 83V61.112H191.101V83H186.909ZM183.293 71.224V67.544H194.717V71.224H183.293ZM201.939 83.128L195.475 67.544H200.019L204.307 79.448H202.771L207.219 67.544H211.795L204.915 83.128H201.939ZM197.651 89.464L202.355 79.512L204.915 83.128L202.099 89.464H197.651ZM213.012 76.728V72.92H224.084V76.728H213.012ZM231.442 83V79.448H237.298C238.343 79.448 239.154 79.128 239.73 78.488C240.327 77.848 240.626 77.0907 240.626 76.216C240.626 75.6187 240.498 75.0747 240.242 74.584C239.986 74.0933 239.602 73.7093 239.09 73.432C238.599 73.1333 238.002 72.984 237.298 72.984H231.442V69.464H236.818C237.714 69.464 238.428 69.24 238.962 68.792C239.516 68.344 239.794 67.672 239.794 66.776C239.794 65.8587 239.516 65.176 238.962 64.728C238.428 64.28 237.714 64.056 236.818 64.056H231.442V60.504H237.33C238.823 60.504 240.071 60.7813 241.074 61.336C242.098 61.8693 242.866 62.584 243.378 63.48C243.89 64.3547 244.146 65.3147 244.146 66.36C244.146 67.64 243.751 68.7493 242.962 69.688C242.194 70.6053 241.063 71.288 239.57 71.736L239.762 70.328C241.426 70.7973 242.706 71.576 243.602 72.664C244.519 73.7307 244.978 75.0213 244.978 76.536C244.978 77.7307 244.679 78.8187 244.082 79.8C243.506 80.76 242.652 81.5387 241.522 82.136C240.412 82.712 239.058 83 237.458 83H231.442ZM228.242 83V60.504H232.562V83H228.242ZM254.445 83.32C253.037 83.32 251.768 82.968 250.637 82.264C249.506 81.56 248.621 80.6 247.981 79.384C247.341 78.168 247.021 76.8027 247.021 75.288C247.021 73.752 247.341 72.376 247.981 71.16C248.621 69.944 249.506 68.984 250.637 68.28C251.768 67.576 253.037 67.224 254.445 67.224C255.554 67.224 256.546 67.448 257.421 67.896C258.296 68.344 258.989 68.9733 259.501 69.784C260.034 70.5733 260.322 71.4693 260.365 72.472V78.04C260.322 79.064 260.034 79.9707 259.501 80.76C258.989 81.5493 258.296 82.1787 257.421 82.648C256.546 83.096 255.554 83.32 254.445 83.32ZM255.213 79.448C256.386 79.448 257.336 79.064 258.061 78.296C258.786 77.5067 259.149 76.4933 259.149 75.256C259.149 74.4453 258.978 73.7307 258.637 73.112C258.317 72.472 257.858 71.9813 257.261 71.64C256.685 71.2773 256.002 71.096 255.213 71.096C254.445 71.096 253.762 71.2773 253.165 71.64C252.589 71.9813 252.13 72.472 251.789 73.112C251.469 73.7307 251.309 74.4453 251.309 75.256C251.309 76.088 251.469 76.824 251.789 77.464C252.13 78.0827 252.589 78.5733 253.165 78.936C253.762 79.2773 254.445 79.448 255.213 79.448ZM258.925 83V78.84L259.597 75.064L258.925 71.352V67.544H263.085V83H258.925ZM272.106 83.352C271.231 83.352 270.367 83.2347 269.514 83C268.682 82.7653 267.914 82.4453 267.21 82.04C266.506 81.6133 265.898 81.1013 265.386 80.504L267.882 77.976C268.415 78.5733 269.034 79.0213 269.738 79.32C270.442 79.6187 271.22 79.768 272.074 79.768C272.756 79.768 273.268 79.672 273.61 79.48C273.972 79.288 274.154 79 274.154 78.616C274.154 78.1893 273.962 77.8587 273.578 77.624C273.215 77.3893 272.735 77.1973 272.138 77.048C271.54 76.8773 270.911 76.696 270.25 76.504C269.61 76.2907 268.991 76.024 268.394 75.704C267.796 75.3627 267.306 74.904 266.922 74.328C266.559 73.7307 266.378 72.9627 266.378 72.024C266.378 71.0427 266.612 70.1893 267.082 69.464C267.572 68.7387 268.266 68.1733 269.161 67.768C270.058 67.3627 271.114 67.16 272.33 67.16C273.61 67.16 274.762 67.384 275.786 67.832C276.831 68.28 277.695 68.952 278.378 69.848L275.85 72.376C275.38 71.8 274.847 71.384 274.25 71.128C273.674 70.872 273.044 70.744 272.362 70.744C271.743 70.744 271.263 70.84 270.922 71.032C270.602 71.224 270.442 71.4907 270.442 71.832C270.442 72.216 270.623 72.5147 270.986 72.728C271.37 72.9413 271.86 73.1333 272.458 73.304C273.055 73.4533 273.674 73.6347 274.314 73.848C274.975 74.04 275.594 74.3173 276.17 74.68C276.767 75.0427 277.247 75.5227 277.61 76.12C277.994 76.7173 278.186 77.4853 278.186 78.424C278.186 79.9387 277.642 81.144 276.554 82.04C275.466 82.9147 273.983 83.352 272.106 83.352ZM288.404 83.32C286.783 83.32 285.343 82.9787 284.084 82.296C282.826 81.592 281.823 80.632 281.076 79.416C280.351 78.2 279.988 76.8133 279.988 75.256C279.988 73.72 280.34 72.3547 281.044 71.16C281.77 69.944 282.751 68.984 283.988 68.28C285.226 67.5547 286.602 67.192 288.116 67.192C289.61 67.192 290.922 67.5333 292.052 68.216C293.204 68.8773 294.1 69.7947 294.74 70.968C295.402 72.12 295.732 73.432 295.732 74.904C295.732 75.1813 295.711 75.4693 295.668 75.768C295.647 76.0453 295.594 76.3653 295.508 76.728L282.516 76.76V73.624L293.556 73.592L291.86 74.904C291.818 73.9867 291.647 73.2187 291.348 72.6C291.071 71.9813 290.655 71.512 290.1 71.192C289.567 70.8507 288.906 70.68 288.116 70.68C287.284 70.68 286.559 70.872 285.94 71.256C285.322 71.6187 284.842 72.1413 284.5 72.824C284.18 73.4853 284.02 74.2747 284.02 75.192C284.02 76.1307 284.191 76.952 284.532 77.656C284.895 78.3387 285.407 78.872 286.068 79.256C286.73 79.6187 287.498 79.8 288.372 79.8C289.162 79.8 289.876 79.672 290.516 79.416C291.156 79.1387 291.711 78.7333 292.18 78.2L294.644 80.664C293.898 81.5387 292.98 82.2 291.892 82.648C290.826 83.096 289.663 83.32 288.404 83.32ZM304.853 83.32C303.423 83.32 302.143 82.968 301.013 82.264C299.882 81.56 298.986 80.6 298.325 79.384C297.685 78.168 297.365 76.8027 297.365 75.288C297.365 73.752 297.685 72.376 298.325 71.16C298.986 69.944 299.871 68.984 300.981 68.28C302.111 67.576 303.402 67.224 304.853 67.224C305.962 67.224 306.954 67.448 307.829 67.896C308.725 68.344 309.439 68.9733 309.973 69.784C310.527 70.5733 310.826 71.4693 310.869 72.472V77.976C310.826 78.9787 310.538 79.8853 310.005 80.696C309.471 81.5067 308.757 82.1467 307.861 82.616C306.965 83.0853 305.962 83.32 304.853 83.32ZM305.557 79.448C306.346 79.448 307.029 79.2773 307.605 78.936C308.202 78.5733 308.661 78.0827 308.981 77.464C309.322 76.824 309.493 76.088 309.493 75.256C309.493 74.4453 309.322 73.7307 308.981 73.112C308.661 72.472 308.202 71.9813 307.605 71.64C307.029 71.2773 306.357 71.096 305.589 71.096C304.799 71.096 304.106 71.2773 303.509 71.64C302.933 72.0027 302.474 72.4933 302.133 73.112C301.813 73.7307 301.653 74.4453 301.653 75.256C301.653 76.088 301.813 76.824 302.133 77.464C302.474 78.0827 302.943 78.5733 303.541 78.936C304.138 79.2773 304.81 79.448 305.557 79.448ZM313.429 83H309.269V78.84L309.941 75.064L309.237 71.352V59.864H313.429V83Z" fill="white"/>
<path d="M64.2297 139V122.344H66.4857V139H64.2297ZM65.7657 131.68V129.616H74.4537V131.68H65.7657ZM65.7657 124.408V122.344H74.8617V124.408H65.7657ZM82.1787 139.24C81.0587 139.24 80.0507 138.976 79.1547 138.448C78.2587 137.92 77.5467 137.208 77.0187 136.312C76.4907 135.4 76.2267 134.384 76.2267 133.264C76.2267 132.16 76.4907 131.168 77.0187 130.288C77.5467 129.392 78.2587 128.68 79.1547 128.152C80.0507 127.624 81.0587 127.36 82.1787 127.36C83.2827 127.36 84.2827 127.624 85.1787 128.152C86.0907 128.664 86.8107 129.368 87.3387 130.264C87.8667 131.16 88.1307 132.16 88.1307 133.264C88.1307 134.384 87.8667 135.4 87.3387 136.312C86.8107 137.208 86.0907 137.92 85.1787 138.448C84.2827 138.976 83.2827 139.24 82.1787 139.24ZM82.1787 137.152C82.8987 137.152 83.5387 136.984 84.0987 136.648C84.6587 136.312 85.0987 135.856 85.4187 135.28C85.7387 134.688 85.8987 134.016 85.8987 133.264C85.8987 132.528 85.7307 131.872 85.3947 131.296C85.0747 130.72 84.6347 130.272 84.0747 129.952C83.5307 129.616 82.8987 129.448 82.1787 129.448C81.4587 129.448 80.8187 129.616 80.2587 129.952C79.6987 130.272 79.2587 130.72 78.9387 131.296C78.6187 131.872 78.4587 132.528 78.4587 133.264C78.4587 134.016 78.6187 134.688 78.9387 135.28C79.2587 135.856 79.6987 136.312 80.2587 136.648C80.8187 136.984 81.4587 137.152 82.1787 137.152ZM90.5645 139V127.6H92.7245V139H90.5645ZM92.7245 132.496L91.9085 132.136C91.9085 130.68 92.2445 129.52 92.9165 128.656C93.5885 127.792 94.5565 127.36 95.8205 127.36C96.3965 127.36 96.9165 127.464 97.3805 127.672C97.8445 127.864 98.2765 128.192 98.6765 128.656L97.2605 130.12C97.0205 129.864 96.7565 129.68 96.4685 129.568C96.1805 129.456 95.8445 129.4 95.4605 129.4C94.6605 129.4 94.0045 129.656 93.4925 130.168C92.9805 130.68 92.7245 131.456 92.7245 132.496ZM104.781 139.24C103.853 139.24 103.013 139.032 102.261 138.616C101.525 138.184 100.949 137.592 100.533 136.84C100.117 136.088 99.9093 135.216 99.9093 134.224V127.6H102.069V134.128C102.069 134.752 102.173 135.296 102.381 135.76C102.605 136.208 102.925 136.552 103.341 136.792C103.757 137.032 104.245 137.152 104.805 137.152C105.653 137.152 106.317 136.888 106.797 136.36C107.277 135.816 107.517 135.072 107.517 134.128V127.6H109.677V134.224C109.677 135.216 109.469 136.088 109.053 136.84C108.637 137.592 108.061 138.184 107.325 138.616C106.605 139.032 105.757 139.24 104.781 139.24ZM112.572 139V127.6H114.732V139H112.572ZM120.276 139V132.112C120.276 131.264 120.012 130.6 119.484 130.12C118.972 129.624 118.324 129.376 117.54 129.376C117.012 129.376 116.54 129.488 116.124 129.712C115.708 129.936 115.372 130.248 115.116 130.648C114.86 131.048 114.732 131.528 114.732 132.088L113.844 131.656C113.844 130.792 114.028 130.04 114.396 129.4C114.78 128.76 115.3 128.264 115.956 127.912C116.612 127.544 117.348 127.36 118.164 127.36C118.964 127.36 119.684 127.536 120.324 127.888C120.98 128.24 121.492 128.736 121.86 129.376C122.244 130.016 122.436 130.776 122.436 131.656V139H120.276ZM127.98 139V132.112C127.98 131.264 127.716 130.6 127.188 130.12C126.676 129.624 126.036 129.376 125.268 129.376C124.74 129.376 124.26 129.488 123.828 129.712C123.412 129.936 123.076 130.248 122.82 130.648C122.564 131.048 122.436 131.528 122.436 132.088L121.212 131.656C121.26 130.776 121.492 130.024 121.908 129.4C122.34 128.76 122.892 128.264 123.564 127.912C124.236 127.544 124.972 127.36 125.772 127.36C126.604 127.36 127.348 127.536 128.004 127.888C128.66 128.24 129.18 128.736 129.564 129.376C129.964 130.016 130.164 130.784 130.164 131.68V139H127.98ZM142.92 139.24C141.864 139.24 140.92 138.984 140.088 138.472C139.256 137.944 138.592 137.232 138.096 136.336C137.616 135.44 137.376 134.432 137.376 133.312C137.376 132.192 137.616 131.184 138.096 130.288C138.592 129.392 139.256 128.68 140.088 128.152C140.92 127.624 141.864 127.36 142.92 127.36C143.768 127.36 144.536 127.544 145.224 127.912C145.912 128.264 146.464 128.76 146.88 129.4C147.312 130.024 147.552 130.752 147.6 131.584V135.016C147.552 135.832 147.32 136.56 146.904 137.2C146.488 137.84 145.936 138.344 145.248 138.712C144.56 139.064 143.784 139.24 142.92 139.24ZM143.28 137.2C144 137.2 144.624 137.032 145.152 136.696C145.696 136.36 146.12 135.904 146.424 135.328C146.728 134.736 146.88 134.064 146.88 133.312C146.88 132.528 146.72 131.848 146.4 131.272C146.096 130.696 145.672 130.24 145.128 129.904C144.6 129.568 143.976 129.4 143.256 129.4C142.536 129.4 141.904 129.568 141.36 129.904C140.816 130.24 140.384 130.704 140.064 131.296C139.76 131.872 139.608 132.536 139.608 133.288C139.608 134.056 139.76 134.736 140.064 135.328C140.384 135.904 140.816 136.36 141.36 136.696C141.92 137.032 142.56 137.2 143.28 137.2ZM148.92 139H146.736V135.928L147.144 133.144L146.736 130.384V121.864H148.92V139ZM152.088 139V127.6H154.248V139H152.088ZM153.168 125.32C152.768 125.32 152.44 125.192 152.184 124.936C151.928 124.664 151.8 124.328 151.8 123.928C151.8 123.544 151.928 123.224 152.184 122.968C152.44 122.696 152.768 122.56 153.168 122.56C153.568 122.56 153.896 122.696 154.152 122.968C154.408 123.224 154.536 123.544 154.536 123.928C154.536 124.328 154.408 124.664 154.152 124.936C153.896 125.192 153.568 125.32 153.168 125.32ZM161.056 139.24C160.416 139.24 159.808 139.16 159.232 139C158.672 138.824 158.152 138.584 157.672 138.28C157.192 137.96 156.776 137.584 156.424 137.152L157.816 135.76C158.232 136.272 158.712 136.656 159.256 136.912C159.8 137.152 160.408 137.272 161.08 137.272C161.752 137.272 162.272 137.16 162.64 136.936C163.008 136.696 163.192 136.368 163.192 135.952C163.192 135.536 163.04 135.216 162.736 134.992C162.448 134.752 162.072 134.56 161.608 134.416C161.144 134.256 160.648 134.104 160.12 133.96C159.608 133.8 159.12 133.6 158.656 133.36C158.192 133.12 157.808 132.792 157.504 132.376C157.216 131.96 157.072 131.408 157.072 130.72C157.072 130.032 157.24 129.44 157.576 128.944C157.912 128.432 158.376 128.04 158.968 127.768C159.576 127.496 160.304 127.36 161.152 127.36C162.048 127.36 162.84 127.52 163.528 127.84C164.232 128.144 164.808 128.608 165.256 129.232L163.864 130.624C163.544 130.208 163.144 129.888 162.664 129.664C162.2 129.44 161.672 129.328 161.08 129.328C160.456 129.328 159.976 129.44 159.64 129.664C159.32 129.872 159.16 130.168 159.16 130.552C159.16 130.936 159.304 131.232 159.592 131.44C159.88 131.648 160.256 131.824 160.72 131.968C161.2 132.112 161.696 132.264 162.208 132.424C162.72 132.568 163.208 132.768 163.672 133.024C164.136 133.28 164.512 133.624 164.8 134.056C165.104 134.488 165.256 135.056 165.256 135.76C165.256 136.832 164.872 137.68 164.104 138.304C163.352 138.928 162.336 139.24 161.056 139.24ZM174.97 139L169.642 133.168L174.922 127.6H177.538L171.658 133.744L171.754 132.496L177.754 139H174.97ZM167.674 139V121.864H169.834V139H167.674ZM183.789 139.24C182.861 139.24 182.021 139.032 181.269 138.616C180.533 138.184 179.957 137.592 179.541 136.84C179.125 136.088 178.917 135.216 178.917 134.224V127.6H181.077V134.128C181.077 134.752 181.181 135.296 181.389 135.76C181.613 136.208 181.933 136.552 182.349 136.792C182.765 137.032 183.253 137.152 183.813 137.152C184.661 137.152 185.325 136.888 185.805 136.36C186.285 135.816 186.525 135.072 186.525 134.128V127.6H188.685V134.224C188.685 135.216 188.477 136.088 188.061 136.84C187.645 137.592 187.069 138.184 186.333 138.616C185.613 139.032 184.765 139.24 183.789 139.24ZM195.204 139.24C194.564 139.24 193.956 139.16 193.38 139C192.82 138.824 192.3 138.584 191.82 138.28C191.34 137.96 190.924 137.584 190.572 137.152L191.964 135.76C192.38 136.272 192.86 136.656 193.404 136.912C193.948 137.152 194.556 137.272 195.228 137.272C195.9 137.272 196.42 137.16 196.788 136.936C197.156 136.696 197.34 136.368 197.34 135.952C197.34 135.536 197.188 135.216 196.884 134.992C196.596 134.752 196.22 134.56 195.756 134.416C195.292 134.256 194.796 134.104 194.268 133.96C193.756 133.8 193.268 133.6 192.804 133.36C192.34 133.12 191.956 132.792 191.652 132.376C191.364 131.96 191.22 131.408 191.22 130.72C191.22 130.032 191.388 129.44 191.724 128.944C192.06 128.432 192.524 128.04 193.116 127.768C193.724 127.496 194.452 127.36 195.3 127.36C196.196 127.36 196.988 127.52 197.676 127.84C198.38 128.144 198.956 128.608 199.404 129.232L198.012 130.624C197.692 130.208 197.292 129.888 196.812 129.664C196.348 129.44 195.82 129.328 195.228 129.328C194.604 129.328 194.124 129.44 193.788 129.664C193.468 129.872 193.308 130.168 193.308 130.552C193.308 130.936 193.452 131.232 193.74 131.44C194.028 131.648 194.404 131.824 194.868 131.968C195.348 132.112 195.844 132.264 196.356 132.424C196.868 132.568 197.356 132.768 197.82 133.024C198.284 133.28 198.66 133.624 198.948 134.056C199.252 134.488 199.404 135.056 199.404 135.76C199.404 136.832 199.02 137.68 198.252 138.304C197.5 138.928 196.484 139.24 195.204 139.24ZM201.846 139V127.6H204.006V139H201.846ZM202.926 125.32C202.526 125.32 202.198 125.192 201.942 124.936C201.686 124.664 201.558 124.328 201.558 123.928C201.558 123.544 201.686 123.224 201.942 122.968C202.198 122.696 202.526 122.56 202.926 122.56C203.326 122.56 203.654 122.696 203.91 122.968C204.166 123.224 204.294 123.544 204.294 123.928C204.294 124.328 204.166 124.664 203.91 124.936C203.654 125.192 203.326 125.32 202.926 125.32ZM217.03 139.24C215.99 139.24 215.046 138.984 214.198 138.472C213.35 137.944 212.678 137.232 212.182 136.336C211.702 135.44 211.462 134.432 211.462 133.312C211.462 132.192 211.702 131.184 212.182 130.288C212.678 129.392 213.342 128.68 214.174 128.152C215.022 127.624 215.974 127.36 217.03 127.36C217.894 127.36 218.662 127.544 219.334 127.912C220.022 128.264 220.574 128.76 220.99 129.4C221.406 130.024 221.638 130.752 221.686 131.584V135.016C221.638 135.832 221.406 136.56 220.99 137.2C220.59 137.84 220.046 138.344 219.358 138.712C218.686 139.064 217.91 139.24 217.03 139.24ZM217.39 137.2C218.462 137.2 219.326 136.84 219.982 136.12C220.638 135.384 220.966 134.448 220.966 133.312C220.966 132.528 220.814 131.848 220.51 131.272C220.222 130.68 219.806 130.224 219.262 129.904C218.718 129.568 218.086 129.4 217.366 129.4C216.646 129.4 216.006 129.568 215.446 129.904C214.902 130.24 214.47 130.704 214.15 131.296C213.846 131.872 213.694 132.536 213.694 133.288C213.694 134.056 213.846 134.736 214.15 135.328C214.47 135.904 214.91 136.36 215.47 136.696C216.03 137.032 216.67 137.2 217.39 137.2ZM220.822 139V135.928L221.23 133.144L220.822 130.384V127.6H223.006V139H220.822ZM233.446 139L228.118 133.168L233.398 127.6H236.014L230.134 133.744L230.23 132.496L236.23 139H233.446ZM226.15 139V121.864H228.31V139H226.15ZM239.035 139V122.824H241.195V139H239.035ZM236.227 129.568V127.6H244.003V129.568H236.227ZM246.143 139V127.6H248.303V139H246.143ZM247.223 125.32C246.823 125.32 246.495 125.192 246.239 124.936C245.983 124.664 245.855 124.328 245.855 123.928C245.855 123.544 245.983 123.224 246.239 122.968C246.495 122.696 246.823 122.56 247.223 122.56C247.623 122.56 247.951 122.696 248.207 122.968C248.463 123.224 248.591 123.544 248.591 123.928C248.591 124.328 248.463 124.664 248.207 124.936C247.951 125.192 247.623 125.32 247.223 125.32ZM253.118 139V125.896C253.118 125.048 253.302 124.312 253.67 123.688C254.038 123.048 254.542 122.544 255.182 122.176C255.838 121.808 256.598 121.624 257.462 121.624C258.118 121.624 258.686 121.736 259.166 121.96C259.646 122.184 260.086 122.512 260.486 122.944L259.07 124.336C258.862 124.112 258.63 123.944 258.374 123.832C258.118 123.704 257.806 123.64 257.438 123.64C256.75 123.64 256.214 123.84 255.83 124.24C255.462 124.64 255.278 125.192 255.278 125.896V139H253.118ZM250.31 129.568V127.6H258.902V129.568H250.31ZM270.912 139.24C269.872 139.24 268.928 138.984 268.08 138.472C267.232 137.944 266.56 137.232 266.064 136.336C265.584 135.44 265.344 134.432 265.344 133.312C265.344 132.192 265.584 131.184 266.064 130.288C266.56 129.392 267.224 128.68 268.056 128.152C268.904 127.624 269.856 127.36 270.912 127.36C271.776 127.36 272.544 127.544 273.216 127.912C273.904 128.264 274.456 128.76 274.872 129.4C275.288 130.024 275.52 130.752 275.568 131.584V135.016C275.52 135.832 275.288 136.56 274.872 137.2C274.472 137.84 273.928 138.344 273.24 138.712C272.568 139.064 271.792 139.24 270.912 139.24ZM271.272 137.2C272.344 137.2 273.208 136.84 273.864 136.12C274.52 135.384 274.848 134.448 274.848 133.312C274.848 132.528 274.696 131.848 274.392 131.272C274.104 130.68 273.688 130.224 273.144 129.904C272.6 129.568 271.968 129.4 271.248 129.4C270.528 129.4 269.888 129.568 269.328 129.904C268.784 130.24 268.352 130.704 268.032 131.296C267.728 131.872 267.576 132.536 267.576 133.288C267.576 134.056 267.728 134.736 268.032 135.328C268.352 135.904 268.792 136.36 269.352 136.696C269.912 137.032 270.552 137.2 271.272 137.2ZM274.704 139V135.928L275.112 133.144L274.704 130.384V127.6H276.888V139H274.704ZM280.033 139V121.864H282.193V139H280.033ZM290.202 139.24C289.162 139.24 288.218 138.984 287.37 138.472C286.522 137.944 285.85 137.232 285.354 136.336C284.874 135.44 284.634 134.432 284.634 133.312C284.634 132.192 284.874 131.184 285.354 130.288C285.85 129.392 286.514 128.68 287.346 128.152C288.194 127.624 289.146 127.36 290.202 127.36C291.066 127.36 291.834 127.544 292.506 127.912C293.194 128.264 293.746 128.76 294.162 129.4C294.578 130.024 294.81 130.752 294.858 131.584V135.016C294.81 135.832 294.578 136.56 294.162 137.2C293.762 137.84 293.218 138.344 292.53 138.712C291.858 139.064 291.082 139.24 290.202 139.24ZM290.562 137.2C291.634 137.2 292.498 136.84 293.154 136.12C293.81 135.384 294.138 134.448 294.138 133.312C294.138 132.528 293.986 131.848 293.682 131.272C293.394 130.68 292.978 130.224 292.434 129.904C291.89 129.568 291.258 129.4 290.538 129.4C289.818 129.4 289.178 129.568 288.618 129.904C288.074 130.24 287.642 130.704 287.322 131.296C287.018 131.872 286.866 132.536 286.866 133.288C286.866 134.056 287.018 134.736 287.322 135.328C287.642 135.904 288.082 136.36 288.642 136.696C289.202 137.032 289.842 137.2 290.562 137.2ZM293.994 139V135.928L294.402 133.144L293.994 130.384V127.6H296.178V139H293.994ZM110.979 169.24C109.667 169.24 108.547 169 107.619 168.52C106.691 168.04 105.867 167.344 105.147 166.432L106.683 164.896C107.211 165.632 107.819 166.192 108.507 166.576C109.195 166.944 110.043 167.128 111.051 167.128C112.043 167.128 112.835 166.912 113.427 166.48C114.035 166.048 114.339 165.456 114.339 164.704C114.339 164.08 114.195 163.576 113.907 163.192C113.619 162.808 113.227 162.496 112.731 162.256C112.251 162 111.723 161.776 111.147 161.584C110.571 161.376 109.995 161.16 109.419 160.936C108.843 160.696 108.315 160.408 107.835 160.072C107.355 159.72 106.963 159.264 106.659 158.704C106.371 158.144 106.227 157.44 106.227 156.592C106.227 155.648 106.451 154.848 106.899 154.192C107.363 153.52 107.987 153.008 108.771 152.656C109.571 152.288 110.467 152.104 111.459 152.104C112.547 152.104 113.523 152.32 114.387 152.752C115.251 153.168 115.955 153.72 116.499 154.408L114.963 155.944C114.467 155.368 113.931 154.936 113.355 154.648C112.795 154.36 112.147 154.216 111.411 154.216C110.515 154.216 109.803 154.416 109.275 154.816C108.747 155.2 108.483 155.744 108.483 156.448C108.483 157.008 108.627 157.464 108.915 157.816C109.219 158.152 109.611 158.44 110.091 158.68C110.571 158.92 111.099 159.144 111.675 159.352C112.267 159.544 112.851 159.76 113.427 160C114.003 160.24 114.531 160.544 115.011 160.912C115.491 161.28 115.875 161.76 116.163 162.352C116.467 162.928 116.619 163.656 116.619 164.536C116.619 166.008 116.107 167.16 115.083 167.992C114.075 168.824 112.707 169.24 110.979 169.24ZM121.027 169V152.824H123.187V169H121.027ZM118.219 159.568V157.6H125.995V159.568H118.219ZM132.608 169.24C131.568 169.24 130.624 168.984 129.776 168.472C128.928 167.944 128.256 167.232 127.76 166.336C127.28 165.44 127.04 164.432 127.04 163.312C127.04 162.192 127.28 161.184 127.76 160.288C128.256 159.392 128.92 158.68 129.752 158.152C130.6 157.624 131.552 157.36 132.608 157.36C133.472 157.36 134.24 157.544 134.912 157.912C135.6 158.264 136.152 158.76 136.568 159.4C136.984 160.024 137.216 160.752 137.264 161.584V165.016C137.216 165.832 136.984 166.56 136.568 167.2C136.168 167.84 135.624 168.344 134.936 168.712C134.264 169.064 133.488 169.24 132.608 169.24ZM132.968 167.2C134.04 167.2 134.904 166.84 135.56 166.12C136.216 165.384 136.544 164.448 136.544 163.312C136.544 162.528 136.392 161.848 136.088 161.272C135.8 160.68 135.384 160.224 134.84 159.904C134.296 159.568 133.664 159.4 132.944 159.4C132.224 159.4 131.584 159.568 131.024 159.904C130.48 160.24 130.048 160.704 129.728 161.296C129.424 161.872 129.272 162.536 129.272 163.288C129.272 164.056 129.424 164.736 129.728 165.328C130.048 165.904 130.488 166.36 131.048 166.696C131.608 167.032 132.248 167.2 132.968 167.2ZM136.4 169V165.928L136.808 163.144L136.4 160.384V157.6H138.584V169H136.4ZM146.937 169.24C145.817 169.24 144.801 168.976 143.889 168.448C142.993 167.92 142.281 167.208 141.753 166.312C141.241 165.4 140.985 164.392 140.985 163.288C140.985 162.168 141.241 161.16 141.753 160.264C142.281 159.368 142.993 158.664 143.889 158.152C144.801 157.624 145.817 157.36 146.937 157.36C147.817 157.36 148.633 157.528 149.385 157.864C150.137 158.184 150.785 158.656 151.329 159.28L149.889 160.72C149.537 160.304 149.105 159.992 148.593 159.784C148.097 159.56 147.545 159.448 146.937 159.448C146.217 159.448 145.577 159.616 145.017 159.952C144.457 160.272 144.017 160.72 143.697 161.296C143.377 161.872 143.217 162.536 143.217 163.288C143.217 164.04 143.377 164.704 143.697 165.28C144.017 165.856 144.457 166.312 145.017 166.648C145.577 166.984 146.217 167.152 146.937 167.152C147.545 167.152 148.097 167.048 148.593 166.84C149.105 166.616 149.545 166.296 149.913 165.88L151.329 167.32C150.801 167.928 150.153 168.4 149.385 168.736C148.633 169.072 147.817 169.24 146.937 169.24ZM160.767 169L155.439 163.168L160.719 157.6H163.335L157.455 163.744L157.551 162.496L163.551 169H160.767ZM153.471 169V151.864H155.631V169H153.471ZM169.976 169.24C168.856 169.24 167.848 168.976 166.952 168.448C166.056 167.92 165.344 167.208 164.816 166.312C164.288 165.4 164.024 164.384 164.024 163.264C164.024 162.16 164.288 161.168 164.816 160.288C165.344 159.392 166.056 158.68 166.952 158.152C167.848 157.624 168.856 157.36 169.976 157.36C171.08 157.36 172.08 157.624 172.976 158.152C173.888 158.664 174.608 159.368 175.136 160.264C175.664 161.16 175.928 162.16 175.928 163.264C175.928 164.384 175.664 165.4 175.136 166.312C174.608 167.208 173.888 167.92 172.976 168.448C172.08 168.976 171.08 169.24 169.976 169.24ZM169.976 167.152C170.696 167.152 171.336 166.984 171.896 166.648C172.456 166.312 172.896 165.856 173.216 165.28C173.536 164.688 173.696 164.016 173.696 163.264C173.696 162.528 173.528 161.872 173.192 161.296C172.872 160.72 172.432 160.272 171.872 159.952C171.328 159.616 170.696 159.448 169.976 159.448C169.256 159.448 168.616 159.616 168.056 159.952C167.496 160.272 167.056 160.72 166.736 161.296C166.416 161.872 166.256 162.528 166.256 163.264C166.256 164.016 166.416 164.688 166.736 165.28C167.056 165.856 167.496 166.312 168.056 166.648C168.616 166.984 169.256 167.152 169.976 167.152ZM181.828 169L176.596 157.6H178.996L183.196 167.224H181.804L186.028 157.6H188.332L183.1 169H181.828ZM195.009 169.24C193.873 169.24 192.849 168.984 191.937 168.472C191.025 167.944 190.305 167.232 189.777 166.336C189.249 165.44 188.985 164.424 188.985 163.288C188.985 162.168 189.241 161.16 189.753 160.264C190.281 159.368 190.985 158.664 191.865 158.152C192.761 157.624 193.761 157.36 194.865 157.36C195.921 157.36 196.849 157.6 197.649 158.08C198.465 158.56 199.097 159.224 199.545 160.072C200.009 160.92 200.241 161.88 200.241 162.952C200.241 163.112 200.233 163.288 200.217 163.48C200.201 163.656 200.169 163.864 200.121 164.104H190.497V162.304H198.969L198.177 163C198.177 162.232 198.041 161.584 197.769 161.056C197.497 160.512 197.113 160.096 196.617 159.808C196.121 159.504 195.521 159.352 194.817 159.352C194.081 159.352 193.433 159.512 192.873 159.832C192.313 160.152 191.881 160.6 191.577 161.176C191.273 161.752 191.121 162.432 191.121 163.216C191.121 164.016 191.281 164.72 191.601 165.328C191.921 165.92 192.377 166.384 192.969 166.72C193.561 167.04 194.241 167.2 195.009 167.2C195.649 167.2 196.233 167.088 196.761 166.864C197.305 166.64 197.769 166.304 198.153 165.856L199.545 167.272C199.001 167.912 198.329 168.4 197.529 168.736C196.745 169.072 195.905 169.24 195.009 169.24ZM202.596 169V157.6H204.756V169H202.596ZM204.756 162.496L203.94 162.136C203.94 160.68 204.276 159.52 204.948 158.656C205.62 157.792 206.588 157.36 207.852 157.36C208.428 157.36 208.948 157.464 209.412 157.672C209.876 157.864 210.308 158.192 210.708 158.656L209.292 160.12C209.052 159.864 208.788 159.68 208.5 159.568C208.212 159.456 207.876 159.4 207.492 159.4C206.692 159.4 206.036 159.656 205.524 160.168C205.012 160.68 204.756 161.456 204.756 162.496ZM213.814 169V156.064C213.814 155.264 213.998 154.528 214.366 153.856C214.734 153.184 215.262 152.648 215.95 152.248C216.654 151.832 217.462 151.624 218.374 151.624V153.64C217.59 153.64 216.99 153.88 216.574 154.36C216.174 154.824 215.974 155.392 215.974 156.064V169H213.814ZM211.006 159.568V157.6H221.494V159.568H211.006ZM220.606 169V151.768H222.766V169H220.606ZM231.147 169.24C230.027 169.24 229.019 168.976 228.123 168.448C227.227 167.92 226.515 167.208 225.987 166.312C225.459 165.4 225.195 164.384 225.195 163.264C225.195 162.16 225.459 161.168 225.987 160.288C226.515 159.392 227.227 158.68 228.123 158.152C229.019 157.624 230.027 157.36 231.147 157.36C232.251 157.36 233.251 157.624 234.147 158.152C235.059 158.664 235.779 159.368 236.307 160.264C236.835 161.16 237.099 162.16 237.099 163.264C237.099 164.384 236.835 165.4 236.307 166.312C235.779 167.208 235.059 167.92 234.147 168.448C233.251 168.976 232.251 169.24 231.147 169.24ZM231.147 167.152C231.867 167.152 232.507 166.984 233.067 166.648C233.627 166.312 234.067 165.856 234.387 165.28C234.707 164.688 234.867 164.016 234.867 163.264C234.867 162.528 234.699 161.872 234.363 161.296C234.043 160.72 233.603 160.272 233.043 159.952C232.499 159.616 231.867 159.448 231.147 159.448C230.427 159.448 229.787 159.616 229.227 159.952C228.667 160.272 228.227 160.72 227.907 161.296C227.587 161.872 227.427 162.528 227.427 163.264C227.427 164.016 227.587 164.688 227.907 165.28C228.227 165.856 228.667 166.312 229.227 166.648C229.787 166.984 230.427 167.152 231.147 167.152ZM242.469 169L237.957 157.6H240.213L243.477 166.48H242.757L245.997 157.6H247.245L250.485 166.48H249.765L253.029 157.6H255.285L250.797 169H249.525L246.237 160.384H247.029L243.717 169H242.469Z" fill="white"/>
</g>
<defs>
<filter id="filter0_d_770_2032" x="0" y="0" width="364" height="230" filterUnits="userSpaceOnUse" color-interpolation-filters="sRGB">
<feFlood flood-opacity="0" result="BackgroundImageFix"/>
<feColorMatrix in="SourceAlpha" type="matrix" values="0 0 0 0 0 0 0 0 0 0 0 0 0 0 0 0 0 0 127 0" result="hardAlpha"/>
<feOffset dx="2" dy="2"/>
<feGaussianBlur stdDeviation="1"/>
<feComposite in2="hardAlpha" operator="out"/>
<feColorMatrix type="matrix" values="0 0 0 0 0.0156863 0 0 0 0 0.160784 0 0 0 0 0.25098 0 0 0 0.3 0"/>
<feBlend mode="normal" in2="BackgroundImageFix" result="effect1_dropShadow_770_2032"/>
<feBlend mode="normal" in="SourceGraphic" in2="effect1_dropShadow_770_2032" result="shape"/>
</filter>
<linearGradient id="paint0_linear_770_2032" x1="-528.5" y1="-197.5" x2="360" y2="226" gradientUnits="userSpaceOnUse">
<stop stop-color="#DBF227" stop-opacity="0.9"/>
<stop offset="0.5" stop-color="#9FC131" stop-opacity="0.9"/>
<stop offset="1" stop-color="#005C53" stop-opacity="0.9"/>
</linearGradient>
</defs>
</svg>
